<svg width="64" height="64" viewBox="0 0 64 64" fill="none" xmlns="http://www.w3.org/2000/svg">
<path d="M34.7881 41.5119C34.0071 42.2929 34.0071 43.5593 34.7881 44.3403C35.5692 45.1214 36.8355 45.1214 37.6166 44.3403L36.2023 42.9261L34.7881 41.5119ZM40.138 41.8189C40.919 41.0378 40.919 39.7715 40.138 38.9905C39.3569 38.2094 38.0906 38.2094 37.3096 38.9905L38.7238 40.4047L40.138 41.8189ZM42.3524 33.9476C41.5714 34.7286 41.5714 35.995 42.3524 36.776C43.1335 37.5571 44.3998 37.5571 45.1809 36.776L43.7666 35.3618L42.3524 33.9476ZM51.0642 30.8927C51.8453 30.1116 51.8453 28.8453 51.0642 28.0642C50.2832 27.2832 49.0168 27.2832 48.2358 28.0642L49.65 29.4784L51.0642 30.8927ZM7.89278 41.5119C7.11173 42.293 7.11173 43.5593 7.89278 44.3403C8.67383 45.1214 9.94016 45.1214 10.7212 44.3403L9.30699 42.9261L7.89278 41.5119ZM29.6113 58.5927L29.3779 56.6064L29.6113 58.5927ZM27.7522 58.649L27.8667 56.6523L27.7522 58.649ZM58.6493 27.752L56.6526 27.8665L58.6493 27.752ZM58.5929 29.611L56.6066 29.3777L58.5929 29.611ZM20.7768 15.5967L19.3626 14.1825L20.7768 15.5967ZM34.3886 5.40666L34.6219 7.393L34.3886 5.40666ZM36.2476 5.35032L36.1331 7.34704L36.2476 5.35032ZM15.5969 20.7766L17.0111 22.1908L15.5969 20.7766ZM5.4069 34.3883L7.39324 34.6217L5.4069 34.3883ZM5.35056 36.2474L7.34728 36.1329L5.35056 36.2474ZM36.2023 42.9261L37.6166 44.3403L40.138 41.8189L38.7238 40.4047L37.3096 38.9905L34.7881 41.5119L36.2023 42.9261ZM43.7666 35.3618L45.1809 36.776L51.0642 30.8927L49.65 29.4784L48.2358 28.0642L42.3524 33.9476L43.7666 35.3618ZM9.30699 42.9261L10.7212 44.3403L44.3404 10.7211L42.9262 9.30694L41.512 7.89272L7.89278 41.5119L9.30699 42.9261ZM15.5969 20.7766L17.0111 22.1908L22.191 17.0109L20.7768 15.5967L19.3626 14.1825L14.1827 19.3624L15.5969 20.7766ZM48.4029 43.2228L46.9887 41.8086L41.8088 46.9885L43.223 48.4027L44.6372 49.8169L49.8171 44.637L48.4029 43.2228ZM43.223 48.4027L41.8088 46.9885C38.5308 50.2665 36.1891 52.6039 34.1909 54.1965C32.2217 55.766 30.7899 56.4405 29.3779 56.6064L29.6113 58.5927L29.8446 60.579C32.3098 60.2894 34.4391 59.1138 36.684 57.3245C38.9 55.5584 41.4256 53.0285 44.6372 49.8169L43.223 48.4027ZM14.7336 49.266L13.3194 50.6802C16.336 53.6968 18.7299 56.0961 20.8632 57.7468C23.0406 59.4317 25.1502 60.5031 27.6377 60.6458L27.7522 58.649L27.8667 56.6523C26.4975 56.5738 25.1518 56.0077 23.3111 54.5833C21.4262 53.1248 19.2392 50.9431 16.1478 47.8518L14.7336 49.266ZM29.6113 58.5927L29.3779 56.6064C28.872 56.6658 28.3663 56.681 27.8667 56.6523L27.7522 58.649L27.6377 60.6458C28.3719 60.6878 29.1103 60.6653 29.8446 60.579L29.6113 58.5927ZM49.2662 14.7334L47.852 16.1476C50.9434 19.2389 53.1251 21.426 54.5836 23.3108C56.0079 25.1516 56.5741 26.4973 56.6526 27.8665L58.6493 27.752L60.646 27.6375C60.5034 25.15 59.4319 23.0403 57.7471 20.8629C56.0963 18.7296 53.697 16.3357 50.6805 13.3191L49.2662 14.7334ZM48.4029 43.2228L49.8171 44.637C53.0288 41.4254 55.5586 38.8998 57.3248 36.6838C59.114 34.4389 60.2897 32.3096 60.5793 29.8444L58.5929 29.611L56.6066 29.3777C56.4407 30.7897 55.7662 32.2215 54.1967 34.1907C52.6042 36.1889 50.2667 38.5305 46.9887 41.8086L48.4029 43.2228ZM58.6493 27.752L56.6526 27.8665C56.6812 28.3661 56.666 28.8717 56.6066 29.3777L58.5929 29.611L60.5793 29.8444C60.6656 29.11 60.6881 28.3716 60.646 27.6375L58.6493 27.752ZM20.7768 15.5967L22.191 17.0109C25.4691 13.7329 27.8107 11.3954 29.8089 9.80286C31.7781 8.23337 33.2099 7.55888 34.6219 7.393L34.3886 5.40666L34.1552 3.42032C31.69 3.70993 29.5607 4.88561 27.3158 6.67483C25.0998 8.441 22.5742 10.9708 19.3626 14.1825L20.7768 15.5967ZM49.2662 14.7334L50.6805 13.3191C47.6639 10.3026 45.27 7.90329 43.1367 6.25254C40.9593 4.56766 38.8497 3.49623 36.3621 3.3536L36.2476 5.35032L36.1331 7.34704C37.5023 7.42555 38.848 7.99166 40.6888 9.41604C42.5736 10.8745 44.7607 13.0562 47.852 16.1476L49.2662 14.7334ZM34.3886 5.40666L34.6219 7.393C35.1279 7.33356 35.6335 7.31839 36.1331 7.34704L36.2476 5.35032L36.3621 3.3536C35.628 3.31151 34.8895 3.33405 34.1552 3.42032L34.3886 5.40666ZM15.5969 20.7766L14.1827 19.3624C10.9711 22.574 8.44124 25.0996 6.67507 27.3156C4.88585 29.5605 3.71017 31.6898 3.42056 34.155L5.4069 34.3883L7.39324 34.6217C7.55912 33.2097 8.23362 31.7779 9.80311 29.8087C11.3957 27.8105 13.7331 25.4688 17.0111 22.1908L15.5969 20.7766ZM14.7336 49.266L16.1478 47.8518C13.0565 44.7604 10.8748 42.5734 9.41628 40.6885C7.99191 38.8478 7.42579 37.5021 7.34728 36.1329L5.35056 36.2474L3.35384 36.3619C3.49647 38.8494 4.56791 40.959 6.25279 43.1364C7.90354 45.2697 10.3028 47.6636 13.3194 50.6802L14.7336 49.266ZM5.4069 34.3883L3.42056 34.155C3.33429 34.8893 3.31175 35.6277 3.35384 36.3619L5.35056 36.2474L7.34728 36.1329C7.31864 35.6333 7.3338 35.1276 7.39324 34.6217L5.4069 34.3883Z" fill="#56BDE8"/>
<path d="M10.6666 58.666H53.3333" stroke="#56BDE8" stroke-width="4" stroke-linecap="round"/>
</svg>
