<svg width="64" height="64" viewBox="0 0 64 64" fill="none" xmlns="http://www.w3.org/2000/svg">
<path d="M5.33337 21.333V19.333C4.2288 19.333 3.33337 20.2284 3.33337 21.333H5.33337ZM34.963 60.6663C36.0676 60.6663 36.963 59.7709 36.963 58.6663C36.963 57.5618 36.0676 56.6663 34.963 56.6663V58.6663V60.6663ZM56.6667 33.333C56.6667 34.4376 57.5621 35.333 58.6667 35.333C59.7713 35.333 60.6667 34.4376 60.6667 33.333H58.6667H56.6667ZM58.6667 21.333H60.6667C60.6667 20.2284 59.7713 19.333 58.6667 19.333V21.333ZM8.8047 55.319L10.193 53.8793H10.193L8.8047 55.319ZM44.0954 39.2529L45.3904 40.777L44.0954 39.2529ZM47.8022 38.9794C48.7115 38.3523 48.9402 37.1068 48.3131 36.1975C47.686 35.2882 46.4405 35.0595 45.5312 35.6866L46.6667 37.333L47.8022 38.9794ZM44.0954 46.0798L42.8005 47.604V47.604L44.0954 46.0798ZM45.5312 49.6461C46.4405 50.2732 47.686 50.0445 48.3131 49.1352C48.9402 48.2259 48.7115 46.9804 47.8022 46.3533L46.6667 47.9997L45.5312 49.6461ZM34.6667 56.6663C33.5621 56.6663 32.6667 57.5618 32.6667 58.6663C32.6667 59.7709 33.5621 60.6663 34.6667 60.6663V58.6663V56.6663ZM5.33337 21.333H3.33337V35.8092H5.33337H7.33337V21.333H5.33337ZM29.0371 58.6663V60.6663H34.963V58.6663V56.6663H29.0371V58.6663ZM58.6667 33.333H60.6667V21.333H58.6667H56.6667V33.333H58.6667ZM5.33337 35.8092H3.33337C3.33337 41.1381 3.32881 45.3433 3.78645 48.6256C4.25318 51.9731 5.23459 54.6548 7.41643 56.7587L8.8047 55.319L10.193 53.8793C8.90349 52.6359 8.14923 50.9501 7.74813 48.0733C7.33794 45.1313 7.33337 41.2553 7.33337 35.8092H5.33337ZM29.0371 58.6663V56.6663C23.3955 56.6663 19.3584 56.6624 16.2895 56.2645C13.2709 55.8732 11.4926 55.1326 10.193 53.8793L8.8047 55.319L7.41643 56.7587C9.58808 58.8528 12.339 59.7858 15.7752 60.2313C19.1612 60.6703 23.5046 60.6663 29.0371 60.6663V58.6663ZM5.33337 21.333V23.333H58.6667V21.333V19.333H5.33337V21.333ZM44.0954 39.2529L42.8005 37.7287C41.9276 38.4703 41.1008 39.1661 40.5208 39.827C39.8942 40.5408 39.3334 41.4561 39.3334 42.6663H41.3334H43.3334C43.3334 42.8099 43.2329 42.8007 43.527 42.4656C43.8676 42.0775 44.4219 41.5999 45.3904 40.777L44.0954 39.2529ZM46.6667 37.333C45.5312 35.6866 45.5311 35.6866 45.5311 35.6867C45.5311 35.6867 45.531 35.6868 45.5309 35.6868C45.5308 35.6869 45.5307 35.687 45.5305 35.6871C45.5302 35.6873 45.5298 35.6876 45.5292 35.688C45.5282 35.6887 45.5267 35.6897 45.5248 35.691C45.5212 35.6936 45.5159 35.6972 45.5092 35.7018C45.4957 35.7112 45.4763 35.7246 45.4515 35.7419C45.402 35.7763 45.3311 35.8259 45.2433 35.8875C45.0681 36.0108 44.8247 36.1833 44.5513 36.3814C44.0178 36.7678 43.3215 37.2861 42.8005 37.7287L44.0954 39.2529L45.3904 40.777C45.7853 40.4415 46.3746 39.9998 46.8978 39.6208C47.1527 39.4362 47.3804 39.2747 47.5442 39.1596C47.6259 39.1021 47.6914 39.0563 47.736 39.0253C47.7583 39.0098 47.7754 38.998 47.7866 38.9902C47.7922 38.9863 47.7964 38.9834 47.799 38.9816C47.8003 38.9807 47.8013 38.9801 47.8018 38.9797C47.8021 38.9795 47.8022 38.9794 47.8023 38.9793C47.8023 38.9793 47.8023 38.9793 47.8023 38.9793C47.8023 38.9793 47.8023 38.9794 47.8023 38.9794C47.8023 38.9794 47.8022 38.9794 46.6667 37.333ZM44.0954 46.0798L45.3904 44.5556C44.4219 43.7328 43.8676 43.2552 43.527 42.8671C43.2329 42.532 43.3334 42.5228 43.3334 42.6663H41.3334H39.3334C39.3334 43.8766 39.8942 44.7918 40.5208 45.5057C41.1008 46.1666 41.9276 46.8624 42.8005 47.604L44.0954 46.0798ZM46.6667 47.9997C47.8022 46.3533 47.8023 46.3533 47.8023 46.3533C47.8023 46.3533 47.8023 46.3534 47.8023 46.3534C47.8023 46.3534 47.8023 46.3534 47.8023 46.3533C47.8022 46.3533 47.8021 46.3532 47.8018 46.353C47.8013 46.3526 47.8003 46.352 47.799 46.3511C47.7964 46.3493 47.7922 46.3464 47.7866 46.3425C47.7754 46.3347 47.7583 46.3229 47.736 46.3074C47.6914 46.2763 47.6259 46.2306 47.5442 46.1731C47.3804 46.0579 47.1527 45.8965 46.8978 45.7118C46.3746 45.3329 45.7853 44.8912 45.3904 44.5556L44.0954 46.0798L42.8005 47.604C43.3215 48.0466 44.0178 48.5648 44.5513 48.9513C44.8247 49.1493 45.0681 49.3219 45.2433 49.4451C45.3311 49.5068 45.402 49.5564 45.4515 49.5908C45.4763 49.608 45.4957 49.6215 45.5092 49.6308C45.5159 49.6355 45.5212 49.6391 45.5248 49.6417C45.5267 49.643 45.5282 49.644 45.5292 49.6447C45.5298 49.6451 45.5302 49.6454 45.5305 49.6456C45.5307 49.6457 45.5308 49.6458 45.5309 49.6459C45.531 49.6459 45.5311 49.646 45.5311 49.646C45.5312 49.646 45.5312 49.6461 46.6667 47.9997ZM41.3334 42.6663V44.6663H50.6667V42.6663V40.6663H41.3334V42.6663ZM58.6667 50.6663H56.6667C56.6667 53.98 53.9804 56.6663 50.6667 56.6663V58.6663V60.6663C56.1896 60.6663 60.6667 56.1892 60.6667 50.6663H58.6667ZM50.6667 42.6663V44.6663C53.9804 44.6663 56.6667 47.3526 56.6667 50.6663H58.6667H60.6667C60.6667 45.1435 56.1896 40.6663 50.6667 40.6663V42.6663ZM34.6667 58.6663V60.6663H50.6667V58.6663V56.6663H34.6667V58.6663Z" fill="#56BDE8"/>
<path d="M5.33325 21.333L7.89735 15.1792C9.88595 10.4065 10.8803 8.0202 12.8957 6.67661C14.911 5.33301 17.4962 5.33301 22.6666 5.33301H41.3333C46.5036 5.33301 49.0888 5.33301 51.1042 6.67661C53.1196 8.0202 54.1139 10.4065 56.1025 15.1792L58.6666 21.333" stroke="#56BDE8" stroke-width="4" stroke-linecap="round"/>
<path d="M32 21.333V5.33301" stroke="#56BDE8" stroke-width="4" stroke-linecap="round"/>
<path d="M26.6667 32H37.3334" stroke="#56BDE8" stroke-width="4" stroke-linecap="round"/>
</svg>
