<svg width="48" height="48" viewBox="0 0 48 48" fill="none" xmlns="http://www.w3.org/2000/svg">
<path d="M42 34V24C42 14.0589 33.9411 6 24 6C14.0589 6 6 14.0589 6 24V34" stroke="#185F7C" stroke-width="2.5"/>
<path d="M44 31V35" stroke="#185F7C" stroke-width="2.5" stroke-linecap="round"/>
<path d="M4 31V35" stroke="#185F7C" stroke-width="2.5" stroke-linecap="round"/>
<path d="M16 27.6893C16 26.1604 16 25.396 15.6505 24.8645C15.4747 24.5971 15.2412 24.376 14.9688 24.219C14.4274 23.907 13.6962 23.9791 12.2339 24.1233C9.76974 24.3663 8.53767 24.4878 7.65474 25.1529C7.20789 25.4895 6.83275 25.9187 6.55292 26.4134C6 27.391 6 28.6791 6 31.2552V34.3866C6 36.937 6 38.2123 6.56395 39.1971C6.77504 39.5657 7.03962 39.8982 7.34832 40.1827C8.17305 40.9427 9.37688 41.1801 11.7845 41.6549C13.4789 41.989 14.326 42.1561 14.9513 41.8042C15.182 41.6744 15.3859 41.4986 15.5514 41.2868C16 40.713 16 39.8156 16 38.0207V27.6893Z" stroke="#185F7C" stroke-width="2.5"/>
<path d="M32 27.6893C32 26.1604 32 25.396 32.3495 24.8645C32.5253 24.5971 32.7588 24.376 33.0312 24.219C33.5726 23.907 34.3038 23.9791 35.7661 24.1233C38.2303 24.3663 39.4623 24.4878 40.3453 25.1529C40.7921 25.4895 41.1672 25.9187 41.4471 26.4134C42 27.391 42 28.6791 42 31.2552V34.3866C42 36.937 42 38.2123 41.436 39.1971C41.225 39.5657 40.9604 39.8982 40.6517 40.1827C39.827 40.9427 38.6231 41.1801 36.2155 41.6549C34.5211 41.989 33.674 42.1561 33.0487 41.8042C32.818 41.6744 32.6141 41.4986 32.4486 41.2868C32 40.713 32 39.8156 32 38.0207V27.6893Z" stroke="#185F7C" stroke-width="2.5"/>
</svg>
