<svg width="48" height="48" viewBox="0 0 48 48" fill="none" xmlns="http://www.w3.org/2000/svg">
<path d="M14 18C14 19.1046 13.1046 20 12 20C10.8954 20 10 19.1046 10 18C10 16.8954 10.8954 16 12 16C13.1046 16 14 16.8954 14 18Z" fill="#185F7C"/>
<path d="M14 24C14 25.1046 13.1046 26 12 26C10.8954 26 10 25.1046 10 24C10 22.8954 10.8954 22 12 22C13.1046 22 14 22.8954 14 24Z" fill="#185F7C"/>
<path d="M20 24C20 25.1046 19.1046 26 18 26C16.8954 26 16 25.1046 16 24C16 22.8954 16.8954 22 18 22C19.1046 22 20 22.8954 20 24Z" fill="#185F7C"/>
<path d="M20 18C20 19.1046 19.1046 20 18 20C16.8954 20 16 19.1046 16 18C16 16.8954 16.8954 16 18 16C19.1046 16 20 16.8954 20 18Z" fill="#185F7C"/>
<path d="M26 18C26 19.1046 25.1046 20 24 20C22.8954 20 22 19.1046 22 18C22 16.8954 22.8954 16 24 16C25.1046 16 26 16.8954 26 18Z" fill="#185F7C"/>
<path d="M26 24C26 25.1046 25.1046 26 24 26C22.8954 26 22 25.1046 22 24C22 22.8954 22.8954 22 24 22C25.1046 22 26 22.8954 26 24Z" fill="#185F7C"/>
<path d="M32 18C32 19.1046 31.1046 20 30 20C28.8954 20 28 19.1046 28 18C28 16.8954 28.8954 16 30 16C31.1046 16 32 16.8954 32 18Z" fill="#185F7C"/>
<path d="M32 24C32 25.1046 31.1046 26 30 26C28.8954 26 28 25.1046 28 24C28 22.8954 28.8954 22 30 22C31.1046 22 32 22.8954 32 24Z" fill="#185F7C"/>
<path d="M38 18C38 19.1046 37.1046 20 36 20C34.8954 20 34 19.1046 34 18C34 16.8954 34.8954 16 36 16C37.1046 16 38 16.8954 38 18Z" fill="#185F7C"/>
<path d="M38 24C38 25.1046 37.1046 26 36 26C34.8954 26 34 25.1046 34 24C34 22.8954 34.8954 22 36 22C37.1046 22 38 22.8954 38 24Z" fill="#185F7C"/>
<path d="M4 22C4 16.3431 4 13.5147 5.75736 11.7574C7.51472 10 10.3431 10 16 10H32C37.6569 10 40.4853 10 42.2426 11.7574C44 13.5147 44 16.3431 44 22V26C44 31.6569 44 34.4853 42.2426 36.2426C40.4853 38 37.6569 38 32 38H16C10.3431 38 7.51472 38 5.75736 36.2426C4 34.4853 4 31.6569 4 26V22Z" stroke="#185F7C" stroke-width="2.5"/>
<path d="M14 32H34" stroke="#185F7C" stroke-width="2.5" stroke-linecap="round"/>
</svg>
