<svg width="110" height="28" viewBox="0 0 110 28" fill="none" xmlns="http://www.w3.org/2000/svg">
<path d="M8.13 21.93C12.84 21.93 16.02 19.47 16.02 15.54C16.02 7.23 4.98 10.77 4.98 6.39C4.98 5.16 6.09 4.32 7.86 4.32C9.87 4.32 11.13 5.4 11.28 7.05H15.57C15.45 3.06 12.39 0.450001 7.86 0.450001C3.6 0.450001 0.6 2.91 0.6 6.39C0.6 14.64 11.49 11.49 11.49 15.6C11.49 17.19 10.14 18.03 8.13 18.03C5.91 18.03 4.5 16.68 4.32 14.55H0C0.18 19.02 3.36 21.93 8.13 21.93Z" fill="#7B7B7B"/>
<path d="M17.0402 27.81H21.2102V20.34C22.0202 21.36 23.4902 21.93 25.2002 21.93C29.5502 21.93 32.4902 18.84 32.4902 14.13C32.4902 9.42 29.7902 6.33 25.5602 6.33C23.6102 6.33 22.1102 7.05 21.2102 8.22V6.57H17.0402V27.81ZM24.6902 18.33C22.4402 18.33 20.9702 16.65 20.9702 14.13C20.9702 11.58 22.4402 9.9 24.6902 9.9C26.8802 9.9 28.3802 11.58 28.3802 14.13C28.3802 16.65 26.8802 18.33 24.6902 18.33Z" fill="#7B7B7B"/>
<path d="M33.4992 21.69H37.6692V13.41C37.6692 11.46 38.9592 10.05 40.7892 10.05C42.5292 10.05 43.7292 11.37 43.7292 13.2V21.69H47.8992V12.27C47.8992 8.79 45.6792 6.33 42.2892 6.33C40.1892 6.33 38.5392 7.2 37.6692 8.67V0H33.4992V21.69Z" fill="#7B7B7B"/>
<path d="M59.5645 16.56C59.2345 17.85 58.1245 18.51 56.4445 18.51C54.3445 18.51 52.9945 17.19 52.6945 15.06H63.5545C63.5845 14.73 63.6145 14.28 63.6145 13.71C63.6145 10.26 61.4845 6.33 56.1445 6.33C51.0145 6.33 48.6745 10.26 48.6745 14.1C48.6745 17.91 51.3145 21.93 56.4445 21.93C60.1645 21.93 63.0445 19.83 63.6445 16.56H59.5645ZM56.1445 9.39C58.1545 9.39 59.3245 10.74 59.4445 12.42H52.7545C53.1145 10.32 54.2545 9.39 56.1445 9.39Z" fill="#7B7B7B"/>
<path d="M74.5509 10.05V6.57H72.3994C70.5694 6.57 69.4294 7.2 68.6194 9.09V6.57H64.4194V21.69H68.6194V14.34C68.6194 11.76 69.5494 10.05 71.6194 10.05H74.5509Z" fill="#7B7B7B"/>
<path d="M88.9509 6.57H84.7509V14.85C84.7509 16.77 83.4609 18.21 81.6309 18.21C79.9209 18.21 78.7209 16.89 78.7209 15.06V6.57H74.5509V15.99C74.5509 19.44 76.7709 21.93 80.1609 21.93C82.2309 21.93 83.9109 21.03 84.7509 19.59V21.69H88.9509V6.57Z" fill="#7B7B7B"/>
<path d="M90.7512 21.69H94.9212V0H90.7512V21.69Z" fill="#7B7B7B"/>
<path d="M106.826 16.56C106.496 17.85 105.386 18.51 103.706 18.51C101.606 18.51 100.256 17.19 99.9562 15.06H110.816C110.846 14.73 110.876 14.28 110.876 13.71C110.876 10.26 108.746 6.33 103.406 6.33C98.2763 6.33 95.9362 10.26 95.9362 14.1C95.9362 17.91 98.5762 21.93 103.706 21.93C107.426 21.93 110.306 19.83 110.906 16.56H106.826ZM103.406 9.39C105.416 9.39 106.586 10.74 106.706 12.42H100.016C100.376 10.32 101.516 9.39 103.406 9.39Z" fill="#7B7B7B"/>
</svg>
