<svg width="114" height="22" viewBox="0 0 114 22" fill="none" xmlns="http://www.w3.org/2000/svg">
<path d="M0 21.42V17.94H2.76V3.9H0V0.42H10.8C12.08 0.42 13.19 0.64 14.13 1.08C15.09 1.5 15.83 2.11 16.35 2.91C16.89 3.69 17.16 4.63 17.16 5.73V6.03C17.16 6.99 16.98 7.78 16.62 8.4C16.26 9 15.83 9.47 15.33 9.81C14.85 10.13 14.39 10.36 13.95 10.5V11.04C14.39 11.16 14.87 11.39 15.39 11.73C15.91 12.05 16.35 12.52 16.71 13.14C17.09 13.76 17.28 14.57 17.28 15.57V15.87C17.28 17.03 17.01 18.03 16.47 18.87C15.93 19.69 15.18 20.32 14.22 20.76C13.28 21.2 12.18 21.42 10.92 21.42H0ZM6.72 17.82H10.44C11.3 17.82 11.99 17.61 12.51 17.19C13.05 16.77 13.32 16.17 13.32 15.39V15.09C13.32 14.31 13.06 13.71 12.54 13.29C12.02 12.87 11.32 12.66 10.44 12.66H6.72V17.82ZM6.72 9.06H10.38C11.2 9.06 11.87 8.85 12.39 8.43C12.93 8.01 13.2 7.43 13.2 6.69V6.39C13.2 5.63 12.94 5.05 12.42 4.65C11.9 4.23 11.22 4.02 10.38 4.02H6.72V9.06Z" fill="#7B7B7B"/>
<path d="M26.2219 21.84C24.7419 21.84 23.4119 21.54 22.2319 20.94C21.0519 20.34 20.1219 19.47 19.4419 18.33C18.7619 17.19 18.4219 15.82 18.4219 14.22V13.74C18.4219 12.14 18.7619 10.77 19.4419 9.63C20.1219 8.49 21.0519 7.62 22.2319 7.02C23.4119 6.42 24.7419 6.12 26.2219 6.12C27.7019 6.12 29.0319 6.42 30.2119 7.02C31.3919 7.62 32.3219 8.49 33.0019 9.63C33.6819 10.77 34.0219 12.14 34.0219 13.74V14.22C34.0219 15.82 33.6819 17.19 33.0019 18.33C32.3219 19.47 31.3919 20.34 30.2119 20.94C29.0319 21.54 27.7019 21.84 26.2219 21.84ZM26.2219 18.48C27.3819 18.48 28.3419 18.11 29.1019 17.37C29.8619 16.61 30.2419 15.53 30.2419 14.13V13.83C30.2419 12.43 29.8619 11.36 29.1019 10.62C28.3619 9.86 27.4019 9.48 26.2219 9.48C25.0619 9.48 24.1019 9.86 23.3419 10.62C22.5819 11.36 22.2019 12.43 22.2019 13.83V14.13C22.2019 15.53 22.5819 16.61 23.3419 17.37C24.1019 18.11 25.0619 18.48 26.2219 18.48Z" fill="#7B7B7B"/>
<path d="M36.011 21.42V0.42H39.791V21.42H36.011Z" fill="#7B7B7B"/>
<path d="M48.1798 21.42C47.1998 21.42 46.3998 21.12 45.7798 20.52C45.1798 19.9 44.8798 19.08 44.8798 18.06V9.66H41.1598V6.54H44.8798V1.92H48.6598V6.54H52.7398V9.66H48.6598V17.4C48.6598 18 48.9398 18.3 49.4998 18.3H52.3798V21.42H48.1798Z" fill="#7B7B7B"/>
<path d="M60.8414 21.84C58.9014 21.84 57.3114 21.42 56.0714 20.58C54.8314 19.74 54.0814 18.54 53.8214 16.98L57.3014 16.08C57.4414 16.78 57.6714 17.33 57.9914 17.73C58.3314 18.13 58.7414 18.42 59.2214 18.6C59.7214 18.76 60.2614 18.84 60.8414 18.84C61.7214 18.84 62.3714 18.69 62.7914 18.39C63.2114 18.07 63.4214 17.68 63.4214 17.22C63.4214 16.76 63.2214 16.41 62.8214 16.17C62.4214 15.91 61.7814 15.7 60.9014 15.54L60.0614 15.39C59.0214 15.19 58.0714 14.92 57.2114 14.58C56.3514 14.22 55.6614 13.73 55.1414 13.11C54.6214 12.49 54.3614 11.69 54.3614 10.71C54.3614 9.23 54.9014 8.1 55.9814 7.32C57.0614 6.52 58.4814 6.12 60.2414 6.12C61.9014 6.12 63.2814 6.49 64.3814 7.23C65.4814 7.97 66.2014 8.94 66.5414 10.14L63.0314 11.22C62.8714 10.46 62.5414 9.92 62.0414 9.6C61.5614 9.28 60.9614 9.12 60.2414 9.12C59.5214 9.12 58.9714 9.25 58.5914 9.51C58.2114 9.75 58.0214 10.09 58.0214 10.53C58.0214 11.01 58.2214 11.37 58.6214 11.61C59.0214 11.83 59.5614 12 60.2414 12.12L61.0814 12.27C62.2014 12.47 63.2114 12.74 64.1114 13.08C65.0314 13.4 65.7514 13.87 66.2714 14.49C66.8114 15.09 67.0814 15.91 67.0814 16.95C67.0814 18.51 66.5114 19.72 65.3714 20.58C64.2514 21.42 62.7414 21.84 60.8414 21.84Z" fill="#7B7B7B"/>
<path d="M68.8938 21.42V0.42H72.6738V8.37H73.2138C73.3738 8.05 73.6238 7.73 73.9638 7.41C74.3038 7.09 74.7538 6.83 75.3138 6.63C75.8938 6.41 76.6238 6.3 77.5038 6.3C78.6638 6.3 79.6738 6.57 80.5338 7.11C81.4138 7.63 82.0938 8.36 82.5738 9.3C83.0538 10.22 83.2938 11.3 83.2938 12.54V21.42H79.5138V12.84C79.5138 11.72 79.2338 10.88 78.6738 10.32C78.1338 9.76 77.3538 9.48 76.3338 9.48C75.1738 9.48 74.2738 9.87 73.6338 10.65C72.9938 11.41 72.6738 12.48 72.6738 13.86V21.42H68.8938Z" fill="#7B7B7B"/>
<path d="M85.8802 21.42V6.54H89.6602V21.42H85.8802ZM87.7702 4.8C87.0902 4.8 86.5102 4.58 86.0302 4.14C85.5702 3.7 85.3402 3.12 85.3402 2.4C85.3402 1.68 85.5702 1.1 86.0302 0.66C86.5102 0.22 87.0902 0 87.7702 0C88.4702 0 89.0502 0.22 89.5102 0.66C89.9702 1.1 90.2002 1.68 90.2002 2.4C90.2002 3.12 89.9702 3.7 89.5102 4.14C89.0502 4.58 88.4702 4.8 87.7702 4.8Z" fill="#7B7B7B"/>
<path d="M94.8089 21.42V9.66H91.0289V6.54H94.8089V3.78C94.8089 2.76 95.1089 1.95 95.7089 1.35C96.3289 0.73 97.1289 0.42 98.1089 0.42H102.009V3.54H99.4289C98.8689 3.54 98.5889 3.84 98.5889 4.44V6.54H102.489V9.66H98.5889V21.42H94.8089Z" fill="#7B7B7B"/>
<path d="M109.322 21.42C108.342 21.42 107.542 21.12 106.922 20.52C106.322 19.9 106.022 19.08 106.022 18.06V9.66H102.302V6.54H106.022V1.92H109.802V6.54H113.882V9.66H109.802V17.4C109.802 18 110.082 18.3 110.642 18.3H113.522V21.42H109.322Z" fill="#7B7B7B"/>
</svg>
