<svg width="48" height="48" viewBox="0 0 48 48" fill="none" xmlns="http://www.w3.org/2000/svg">
<path d="M41 26.9998V20.9998C41 13.4826 41 9.72403 38.8944 7.21467C38.5576 6.81331 38.1865 6.44213 37.7851 6.10536C35.2758 3.99976 31.5172 3.99976 24 3.99976C16.4829 3.99976 12.7243 3.99976 10.2149 6.10536C9.81356 6.44213 9.44238 6.81331 9.1056 7.21467C7 9.72403 7 13.4826 7 20.9998V26.9998C7 34.5169 7 38.2755 9.1056 40.7849C9.44238 41.1862 9.81356 41.5574 10.2149 41.8942C12.7243 43.9998 16.4829 43.9998 24 43.9998C31.5172 43.9998 35.2758 43.9998 37.7851 41.8942C38.1865 41.5574 38.5576 41.1862 38.8944 40.7849C41 38.2755 41 34.5169 41 26.9998Z" stroke="#185F7C" stroke-width="2.5" stroke-linecap="round"/>
<path d="M30.9999 29.9995C30.9999 33.8655 27.8659 36.9995 23.9999 36.9995C20.1339 36.9995 16.9999 33.8655 16.9999 29.9995C16.9999 26.1335 20.1339 22.9995 23.9999 22.9995C27.8659 22.9995 30.9999 26.1335 30.9999 29.9995Z" stroke="#185F7C" stroke-width="2.5"/>
<path d="M27.0002 13.9995C27.0002 15.6564 25.6571 16.9995 24.0002 16.9995C22.3434 16.9995 21.0002 15.6564 21.0002 13.9995C21.0002 12.3427 22.3434 10.9995 24.0002 10.9995C25.6571 10.9995 27.0002 12.3427 27.0002 13.9995Z" stroke="#185F7C" stroke-width="2.5"/>
</svg>
