<svg width="48" height="48" viewBox="0 0 48 48" fill="none" xmlns="http://www.w3.org/2000/svg">
<path d="M27.9998 6H19.9998C12.4574 6 8.68611 6 6.34296 8.34314C3.99982 10.6863 3.99982 14.4575 3.99982 22C3.99982 29.5425 3.99982 33.3137 6.34296 35.6568C8.68611 38 12.4573 38 19.9998 38H27.9998C35.5423 38 39.3135 38 41.6567 35.6568C43.9998 33.3137 43.9998 29.5425 43.9998 22C43.9998 14.4575 43.9998 10.6863 41.6567 8.34314C39.3135 6 35.5423 6 27.9998 6Z" stroke="#185F7C" stroke-width="2.75" stroke-linecap="round"/>
<path d="M36.0001 38.0002L38.0001 42.0002" stroke="#185F7C" stroke-width="2.75" stroke-linecap="round" stroke-linejoin="round"/>
<path d="M12.0001 38.0002L10.0001 42.0002" stroke="#185F7C" stroke-width="2.75" stroke-linecap="round" stroke-linejoin="round"/>
</svg>
