<svg width="48" height="48" viewBox="0 0 48 48" fill="none" xmlns="http://www.w3.org/2000/svg">
<path d="M4 23C4 16.425 4 13.1376 5.81592 10.9249C6.14835 10.5198 6.51978 10.1484 6.92485 9.81592C9.13755 8 12.425 8 19 8C25.575 8 28.8624 8 31.0751 9.81592C31.4802 10.1484 31.8516 10.5198 32.1841 10.9249C34 13.1376 34 16.425 34 23V25C34 31.575 34 34.8624 32.1841 37.0751C31.8516 37.4802 31.4802 37.8516 31.0751 38.1841C28.8624 40 25.575 40 19 40C12.425 40 9.13755 40 6.92485 38.1841C6.51978 37.8516 6.14835 37.4802 5.81592 37.0751C4 34.8624 4 31.575 4 25V23Z" stroke="#185F7C" stroke-width="2.5"/>
<path d="M34 19L35.3167 18.3417C39.2085 16.3958 41.1544 15.4228 42.5772 16.3022C44 17.1815 44 19.3571 44 23.7082V24.2918C44 28.643 44 30.8185 42.5772 31.6979C41.1544 32.5772 39.2085 31.6043 35.3167 29.6584L34 29V19Z" stroke="#185F7C" stroke-width="2.5"/>
</svg>
