<svg width="48" height="48" viewBox="0 0 48 48" fill="none" xmlns="http://www.w3.org/2000/svg">
<path d="M6 22C6 14.5005 6 10.7508 7.90983 8.12215C8.52663 7.2732 9.2732 6.52663 10.1221 5.90983C12.7508 4 16.5005 4 24 4C31.4995 4 35.2492 4 37.8779 5.90983C38.7268 6.52663 39.4734 7.2732 40.0902 8.12215C42 10.7508 42 14.5005 42 22V26C42 33.4995 42 37.2492 40.0902 39.8779C39.4734 40.7268 38.7268 41.4734 37.8779 42.0902C35.2492 44 31.4995 44 24 44C16.5005 44 12.7508 44 10.1221 42.0902C9.2732 41.4734 8.52663 40.7268 7.90983 39.8779C6 37.2492 6 33.4995 6 26V22Z" stroke="#185F7C" stroke-width="2.5"/>
<path d="M14 10H34" stroke="#185F7C" stroke-width="2.5" stroke-linecap="round"/>
<path d="M14 14H34" stroke="#185F7C" stroke-width="2.5" stroke-linecap="round"/>
</svg>
