<svg width="16" height="16" viewBox="0 0 16 16" fill="none" xmlns="http://www.w3.org/2000/svg">
<path d="M2.51809 7.96157C1.88607 6.85954 1.58091 5.95965 1.3969 5.04747C1.12476 3.69838 1.74755 2.38054 2.77926 1.53965C3.21531 1.18425 3.71516 1.30568 3.97301 1.76827L4.55513 2.81261C5.01653 3.64038 5.24724 4.05426 5.20148 4.49306C5.15572 4.93186 4.84459 5.28924 4.22232 6.004L2.51809 7.96157ZM2.51809 7.96157C3.79735 10.1922 5.8049 12.2008 8.0381 13.4816M8.0381 13.4816C9.14014 14.1136 10.04 14.4188 10.9522 14.6028C12.3013 14.8749 13.6191 14.2521 14.46 13.2204C14.8154 12.7844 14.694 12.2845 14.2314 12.0267L13.1871 11.4445C12.3593 10.9831 11.9454 10.7524 11.5066 10.7982C11.0678 10.844 10.7104 11.1551 9.99567 11.7774L8.0381 13.4816Z" stroke="#2CACE2" stroke-linejoin="round"/>
</svg>
