<svg width="64" height="64" viewBox="0 0 64 64" fill="none" xmlns="http://www.w3.org/2000/svg">
<path d="M45.3334 28.8119C45.3334 27.8902 45.3334 27.4294 45.4722 27.0186C45.8754 25.8252 46.9381 25.362 48.003 24.877C49.2 24.3318 49.7986 24.0592 50.3916 24.0112C51.0648 23.9568 51.7393 24.1018 52.3147 24.4248C53.0776 24.8529 53.6097 25.6665 54.1544 26.328C56.67 29.3836 57.9279 30.9114 58.3881 32.5961C58.7596 33.9558 58.7596 35.3776 58.3881 36.7372C57.7168 39.1945 55.596 41.2543 54.0261 43.161C53.2231 44.1364 52.8216 44.6241 52.3147 44.9086C51.7393 45.2315 51.0648 45.3766 50.3916 45.3221C49.7986 45.2742 49.2 45.0016 48.003 44.4563C46.9381 43.9713 45.8754 43.5082 45.4722 42.3148C45.3334 41.9039 45.3334 41.4431 45.3334 40.5215V28.8119Z" stroke="#56BDE8" stroke-width="4"/>
<path d="M18.6667 28.8123C18.6667 27.6516 18.6342 26.6085 17.6958 25.7925C17.3546 25.4957 16.9021 25.2896 15.9972 24.8775C14.8001 24.3322 14.2016 24.0596 13.6085 24.0116C11.8292 23.8677 10.8719 25.0822 9.84575 26.3285C7.33008 29.384 6.07225 30.9118 5.61199 32.5966C5.24056 33.9562 5.24056 35.378 5.61199 36.7376C6.28329 39.1949 8.40413 41.2547 9.97398 43.1615C10.9635 44.3634 11.9088 45.46 13.6085 45.3226C14.2016 45.2746 14.8001 45.002 15.9972 44.4568C16.9021 44.0446 17.3546 43.8385 17.6958 43.5417C18.6342 42.7257 18.6667 41.6826 18.6667 40.5219V28.8123Z" stroke="#56BDE8" stroke-width="4"/>
<path d="M13.3334 24C13.3334 15.1634 21.6907 8 32 8C42.3094 8 50.6667 15.1634 50.6667 24" stroke="#56BDE8" stroke-width="4" stroke-linecap="square" stroke-linejoin="round"/>
<path d="M50.6668 45.333V47.4663C50.6668 52.1792 45.8912 55.9997 40.0001 55.9997H34.6668" stroke="#56BDE8" stroke-width="4" stroke-linecap="round" stroke-linejoin="round"/>
</svg>
