<svg width="48" height="48" viewBox="0 0 48 48" fill="none" xmlns="http://www.w3.org/2000/svg">
<path d="M20.3299 9.55844L21.3338 10.2689C22.1134 10.8206 23.0449 11.1169 24 11.1169C24.9551 11.1169 25.8867 10.8206 26.6663 10.2688L27.6701 9.55844C29.1028 8.54451 30.8147 8 32.5699 8H33.7949C34.6032 8 35.4198 8.05097 36.1817 8.32118C40.9471 10.0113 44.225 16.1901 43.9879 30.2053C43.9402 33.0291 43.2794 36.15 40.7315 37.3685C39.9376 37.7482 39.0067 38 37.9466 38C36.6745 38 35.6644 37.6374 34.8847 37.1264C33.0569 35.9284 31.7176 33.9278 29.7775 32.9218C28.6096 32.3161 27.3133 32 25.9977 32H22.0023C20.6867 32 19.3904 32.3161 18.2225 32.9218C16.2824 33.9278 14.9431 35.9284 13.1153 37.1264C12.3356 37.6374 11.3255 38 10.0534 38C8.99334 38 8.06242 37.7482 7.26846 37.3685C4.7206 36.15 4.05984 33.0291 4.01207 30.2053C3.77498 16.1901 7.0529 10.0113 11.8183 8.32119C12.5802 8.05097 13.3968 8 14.2051 8H15.4301C17.1853 8 18.8972 8.54451 20.3299 9.55844Z" stroke="#185F7C" stroke-width="2.5" stroke-linecap="round"/>
<path d="M15 18V24M12 21L18 21" stroke="#185F7C" stroke-width="2.5" stroke-linecap="round"/>
<path d="M38 20.5C38 21.3284 37.3284 22 36.5 22C35.6716 22 35 21.3284 35 20.5C35 19.6716 35.6716 19 36.5 19C37.3284 19 38 19.6716 38 20.5Z" fill="#185F7C"/>
<path d="M32 20.5C32 21.3284 31.3284 22 30.5 22C29.6716 22 29 21.3284 29 20.5C29 19.6716 29.6716 19 30.5 19C31.3284 19 32 19.6716 32 20.5Z" fill="#185F7C"/>
<path d="M33.5 16C34.3284 16 35 16.6716 35 17.5C35 18.3284 34.3284 19 33.5 19C32.6716 19 32 18.3284 32 17.5C32 16.6716 32.6716 16 33.5 16Z" fill="#185F7C"/>
<path d="M33.5 22C34.3284 22 35 22.6716 35 23.5C35 24.3284 34.3284 25 33.5 25C32.6716 25 32 24.3284 32 23.5C32 22.6716 32.6716 22 33.5 22Z" fill="#185F7C"/>
</svg>
