<svg width="48" height="48" viewBox="0 0 48 48" fill="none" xmlns="http://www.w3.org/2000/svg">
<path fill-rule="evenodd" clip-rule="evenodd" d="M17.8903 4.5H30.1098C32.8449 4.49996 35.0496 4.49993 36.7835 4.73305C38.5837 4.97508 40.0995 5.49287 41.3033 6.6967C42.5071 7.90053 43.0249 9.41628 43.267 11.2165C43.5001 12.9504 43.5 15.1551 43.5 17.8903V28.104C43.5001 29.901 43.5001 31.3994 43.3402 32.589C43.1714 33.8445 42.8 34.9781 41.8891 35.8891C40.9781 36.8 39.8445 37.1714 38.589 37.3402C37.3994 37.5001 35.901 37.5001 34.104 37.5H13.896C12.099 37.5001 10.6006 37.5001 9.41104 37.3402C8.15545 37.1714 7.02185 36.8 6.11091 35.8891C5.19997 34.9781 4.82863 33.8445 4.65982 32.589C4.49989 31.3994 4.49994 29.901 4.5 28.104L4.5 17.8903C4.49996 15.1551 4.49992 12.9504 4.73305 11.2165C4.97508 9.41628 5.49287 7.90053 6.6967 6.6967C7.90053 5.49287 9.41628 4.97508 11.2165 4.73305C12.9504 4.49993 15.1551 4.49996 17.8903 4.5ZM11.6162 7.7063C10.1487 7.9036 9.37155 8.2645 8.81802 8.81802C8.26449 9.37155 7.9036 10.1487 7.70629 11.6162C7.50319 13.1269 7.5 15.1292 7.5 18V28C7.5 29.928 7.50319 31.2231 7.63307 32.1892C7.75715 33.1121 7.9716 33.5071 8.23223 33.7678C8.49287 34.0284 8.88786 34.2428 9.81078 34.3669C10.7769 34.4968 12.072 34.5 14 34.5H34C35.928 34.5 37.2231 34.4968 38.1892 34.3669C39.1121 34.2428 39.5071 34.0284 39.7678 33.7678C40.0284 33.5071 40.2428 33.1121 40.3669 32.1892C40.4968 31.2231 40.5 29.928 40.5 28V18C40.5 15.1292 40.4968 13.1269 40.2937 11.6162C40.0964 10.1487 39.7355 9.37155 39.182 8.81802C38.6285 8.2645 37.8513 7.9036 36.3838 7.7063C34.8731 7.50319 32.8708 7.5 30 7.5H18C15.1292 7.5 13.1269 7.50319 11.6162 7.7063ZM16.5 30C16.5 29.1716 17.1716 28.5 18 28.5H30C30.8284 28.5 31.5 29.1716 31.5 30C31.5 30.8284 30.8284 31.5 30 31.5H18C17.1716 31.5 16.5 30.8284 16.5 30ZM2.5 42C2.5 41.1716 3.17157 40.5 4 40.5H44C44.8284 40.5 45.5 41.1716 45.5 42C45.5 42.8284 44.8284 43.5 44 43.5H4C3.17157 43.5 2.5 42.8284 2.5 42Z" fill="#185F7C"/>
</svg>
