<svg width="44" height="45" viewBox="0 0 44 45" fill="none" xmlns="http://www.w3.org/2000/svg">
<circle cx="22" cy="22.2499" r="20.5" stroke="#7B7B7B" stroke-width="3"/>
<path d="M36.4957 7.75433C38.5071 9.76574 39.131 13.1628 38.0474 17.3769C36.9734 21.5532 34.271 26.2425 30.1318 30.3817C25.9925 34.521 21.3032 37.2233 17.127 38.2973C12.9129 39.381 9.51577 38.7571 7.50436 36.7457C5.49296 34.7343 4.86911 31.3372 5.95273 27.1231C7.02673 22.9469 9.72907 18.2575 13.8683 14.1183C18.0076 9.97903 22.6969 7.2767 26.8732 6.2027C31.0872 5.11908 34.4843 5.74292 36.4957 7.75433Z" stroke="#7B7B7B" stroke-width="3"/>
<path d="M7.50415 7.75426C9.51555 5.74285 12.9126 5.11901 17.1267 6.20263C21.303 7.27662 25.9923 9.97896 30.1316 14.1182C34.2708 18.2575 36.9732 22.9468 38.0472 27.123C39.1308 31.3371 38.5069 34.7342 36.4955 36.7456C34.4841 38.757 31.087 39.3809 26.8729 38.2973C22.6967 37.2233 18.0074 34.5209 13.8681 30.3817C9.72885 26.2424 7.02651 21.5531 5.95252 17.3768C4.86889 13.1628 5.49274 9.76567 7.50415 7.75426Z" stroke="#7B7B7B" stroke-width="3"/>
</svg>
