<svg width="48" height="48" viewBox="0 0 48 48" fill="none" xmlns="http://www.w3.org/2000/svg">
<path d="M10 18C10 10.268 16.268 4 24 4C31.732 4 38 10.268 38 18V30C38 37.732 31.732 44 24 44C16.268 44 10 37.732 10 30V18Z" stroke="#185F7C" stroke-width="2.5"/>
<path d="M21 17C21 15.3431 22.3431 14 24 14C25.6569 14 27 15.3431 27 17V21C27 22.6569 25.6569 24 24 24C22.3431 24 21 22.6569 21 21V17Z" stroke="#185F7C" stroke-width="2.5"/>
<path d="M24 4V14" stroke="#185F7C" stroke-width="2.5" stroke-linecap="round"/>
</svg>
