<svg width="64" height="64" viewBox="0 0 64 64" fill="none" xmlns="http://www.w3.org/2000/svg">
<path d="M52.0001 46.6676C52.0001 50.3495 49.0153 53.3343 45.3334 53.3343C41.6515 53.3343 38.6667 50.3495 38.6667 46.6676C38.6667 42.9857 41.6515 40.001 45.3334 40.001C49.0153 40.001 52.0001 42.9857 52.0001 46.6676Z" stroke="#72C7EC" stroke-width="4"/>
<path d="M25.3333 46.6676C25.3333 50.3495 22.3486 53.3343 18.6667 53.3343C14.9848 53.3343 12 50.3495 12 46.6676C12 42.9857 14.9848 40.001 18.6667 40.001C22.3486 40.001 25.3333 42.9857 25.3333 46.6676Z" stroke="#72C7EC" stroke-width="4"/>
<path d="M38.6666 46.667H25.3333M51.9999 46.667H54.035C54.6216 46.667 54.9149 46.667 55.1614 46.6363C56.9782 46.4098 58.4094 44.9786 58.6359 43.1618C58.6666 42.9153 58.6666 42.622 58.6666 42.0354V34.667C58.6666 25.0941 50.9062 17.3337 41.3333 17.3337M39.9999 41.3337V18.667C39.9999 14.8958 39.9999 13.0101 38.8283 11.8386C37.6568 10.667 35.7712 10.667 31.9999 10.667H13.3333C9.56202 10.667 7.6764 10.667 6.50482 11.8386C5.33325 13.0101 5.33325 14.8958 5.33325 18.667V40.0003C5.33325 42.4926 5.33325 43.7388 5.86915 44.667C6.22022 45.2751 6.72518 45.78 7.33325 46.1311C8.26146 46.667 9.50761 46.667 11.9999 46.667" stroke="#72C7EC" stroke-width="4" stroke-linecap="round" stroke-linejoin="round"/>
</svg>
