<svg width="34" height="32" viewBox="0 0 34 32" fill="none" xmlns="http://www.w3.org/2000/svg">
<path d="M16.1025 1.06091C16.2373 0.646518 16.8232 0.646518 16.958 1.06091L20.0381 10.5394C20.2993 11.3426 21.0479 11.8861 21.8926 11.8861H31.8584C32.2941 11.8863 32.4754 12.4443 32.123 12.7006L24.0605 18.558C23.3771 19.0545 23.0905 19.9352 23.3516 20.7386L26.4316 30.2162C26.5663 30.6308 26.0919 30.9753 25.7393 30.7191L17.6768 24.8617C16.9933 24.3651 16.0672 24.3651 15.3838 24.8617L7.32129 30.7191C6.96862 30.9753 6.4942 30.6308 6.62891 30.2162L9.70898 20.7386C9.97004 19.9352 9.68345 19.0545 9 18.558L0.9375 12.7006C0.585158 12.4443 0.766461 11.8863 1.20215 11.8861H11.168C12.0126 11.8861 12.7613 11.3426 13.0225 10.5394L16.1025 1.06091Z" stroke="#808080" stroke-width="1.5"/>
</svg>
