<svg width="17" height="16" viewBox="0 0 17 16" fill="none" xmlns="http://www.w3.org/2000/svg">
<path d="M7.69447 0.414678C7.87408 -0.138109 8.65613 -0.138109 8.83574 0.414678L10.3755 5.15369C10.4559 5.4009 10.6862 5.56828 10.9462 5.56828H15.9291C16.5103 5.56828 16.752 6.31205 16.2817 6.65369L12.2505 9.58256C12.0402 9.73534 11.9522 10.0062 12.0325 10.2534L13.5723 14.9924C13.7519 15.5452 13.1192 16.0048 12.649 15.6632L8.61778 12.7343C8.40749 12.5816 8.12273 12.5816 7.91243 12.7343L3.88119 15.6632C3.41096 16.0048 2.77828 15.5452 2.95789 14.9924L4.49768 10.2534C4.57801 10.0062 4.49001 9.73534 4.27972 9.58256L0.24848 6.65369C-0.221748 6.31205 0.0199172 5.56828 0.601151 5.56828H5.58404C5.84398 5.56828 6.07435 5.4009 6.15467 5.15369L7.69447 0.414678Z" fill="#FFCE23"/>
</svg>
